# AST/ASF file generated using VICON BodyLanguage
# -----------------------------------------------
:version 1.10
:name VICON
:units
  mass 1.0
  length 0.45
  angle deg
:documentation
   .ast/.asf automatically generated from VICON data using
   VICON BodyBuilder and BodyLanguage model FoxedUp or BRILLIANT.MOD
:root
   order TX TY TZ RX RY RZ
   axis XYZ
   position 0 0 0  
   orientation 0 0 0 
:bonedata
  begin
     id 1 
     name lhipjoint
     direction 0.78388 -0.462562 0.414208 
     length 3.01181 
     axis 0 0 0  XYZ
  end
  begin
     id 2 
     name lfemur
     direction 0.34202 -0.939693 0  
     length 6.04673  
     axis 0 0 20  XYZ
    dof rx ry rz
    limits (-160.0 20.0)
           (-70.0 70.0)
           (-60.0 70.0)
  end
  begin
     id 3 
     name ltibia
     direction 0.34202 -0.939693 0   
     length 7.211   
     axis 0 0 20   XYZ
    dof rx
    limits (-10.0 170.0)
  end
  begin
     id 4 
     name lfoot
     direction 0.121887 -0.334882 0.934344   
     length 2.13567   
     axis -90 7.62852e-016 20   XYZ
    dof rx rz
    limits (-45.0 90.0)
           (-70.0 20.0)
  end
  begin
     id 5 
     name ltoes
     direction 1.53555e-011 -4.2179e-011 1   
     length 1.05957   
     axis -90 7.62852e-016 20   XYZ
    dof rx
    limits (-90.0 20.0)
  end
  begin
     id 6 
     name rhipjoint
     direction -0.769387 -0.475875 0.426129   
     length 2.92756  
     axis 0 0 0  XYZ 
  end
  begin
     id 7 
     name rfemur
     direction -0.34202 -0.939693 0   
     length 6.35468   
     axis 0 0 -20   XYZ
    dof rx ry rz
    limits (-160.0 20.0)
           (-70.0 70.0)
           (-70.0 60.0)
  end
  begin
     id 8 
     name rtibia
     direction -0.34202 -0.939693 0   
     length 7.37886   
     axis 0 0 -20   XYZ
    dof rx
    limits (-10.0 170.0)
 end
 begin
     id 9 
     name rfoot
     direction -0.101763 -0.279592 0.954711   
     length 2.21478  
     axis -90 -7.62852e-016 -20   XYZ
    dof rx rz
    limits (-45.0 90.0)
           (-20.0 70.0)
  end
  begin
     id 10 
     name rtoes
     direction -1.53494e-011 -4.21851e-011 1   
     length 1.10506   
     axis -90 -7.62852e-016 -20   XYZ
    dof rx
    limits (-90.0 20.0)
  end
  begin
     id 11 
     name lowerback
     direction 0.00747405 0.999267 0.0375481   
     length 2.13259   
     axis 0 0 0   XYZ
    dof rx ry rz
    limits (-20.0 45.0)
           (-30.0 30.0)
           (-30.0 30.0)
  end
  begin
     id 12 
     name upperback
     direction 0.00661626 0.996177 0.0871029   
     length 2.10528   
     axis 0 0 0   XYZ
    dof rx ry rz
    limits (-20.0 45.0)
           (-30.0 30.0)
           (-30.0 30.0)
  end
  begin
     id 13 
     name thorax
     direction 0.00320659 0.997679 0.0680167   
     length 2.11338   
     axis 0 0 0   XYZ
    dof rx ry rz
    limits (-20.0 45.0)
           (-30.0 30.0)
           (-30.0 30.0)
  end
  begin
     id 14 
     name lowerneck
     direction 0.0374841 0.973033 0.227602   
     length 1.42765   
     axis 0 0 0   XYZ
    dof rx ry rz
    limits (-20.0 45.0)
           (-30.0 30.0)
           (-30.0 30.0)
  end
  begin
     id 15 
     name upperneck
     direction 0.00481585 0.989155 -0.146795   
     length 1.47593   
     axis 0 0 0   XYZ
    dof rx ry rz
    limits (-20.0 45.0)
           (-30.0 30.0)
           (-30.0 30.0)
  end
  begin
     id 16
     name head
     direction -0.00292522 0.997206 -0.0746423  
     length 1.48116  
     axis 0 0 0   XYZ
    dof rx ry rz
    limits (-20.0 45.0)
           (-30.0 30.0)
           (-30.0 30.0)
  end
  begin
     id 17 
     name lclavicle
     direction 0.951444 0.305606 0.0368784  
     length 3.01855  
     axis 0 0 0   XYZ
    dof ry rz
    limits (-20.0 10.0)
           (0.0 20.0)
  end
  begin
     id 18 
     name lhumerus
     direction 1 -4.48977e-011 2.61664e-027   
     length 5.52731   
     axis 180 -30 -90   XYZ
    dof rx ry rz
    limits (-60.0 90.0)
           (-90.0 90.0)
           (-90.0 90.0)
  end
  begin
     id 19
     name lradius
     direction 1 -4.48944e-011 8.22157e-027   
     length 3.11059   
     axis 180 -30 -90   XYZ
    dof rx
    limits (-10.0 170.0)
  end
  begin
     id 20
     name lwrist
     direction 1 -4.48976e-011 1.5779e-026   
     length 1.5553   
     axis -1.15221e-014 90 90   XYZ
    dof ry
    limits (-180.0 0.0)
 end
  begin
     id 21 
     name lhand
     direction 1 -4.49025e-011 3.1558e-026   
     length 0.419626   
     axis -2.01367e-014 90 90   XYZ
    dof rx rz
    limits (-90.0 90.0)
           (-45.0 45.0)
  end
  begin
     id 22 
     name lfingers
     direction 1 -4.4904e-011 6.31161e-026   
     length 0.338313   
     axis -4.02734e-014 90 90   XYZ
    dof rx
    limits (0.0 90.0)
  end
  begin
     id 23
     name lthumb
     direction 0.707107 -6.35004e-011 0.707107   
     length 0.485752   
     axis -90 45 2.85299e-015   XYZ
    dof rx rz
    limits (-45.0 45.0)
           (-45.0 45.0)
  end
  begin
     id 24 
     name rclavicle
     direction -0.968876 0.223791 0.105816   
     length 3.04177  
     axis 0 0 0   XYZ 
    dof ry rz
    limits (-10.0 20.0)
           (-20.0 0.0)
  end
  begin
     id 25 
     name rhumerus
     direction -1 -4.48962e-011 -1.01384e-027  
     length 5.25396   
     axis 180 30 90   XYZ
    dof rx ry rz
    limits (-90.0 60.0)
           (-90.0 90.0)
           (-90.0 90.0)
  end
  begin
     id 26 
     name rradius
     direction -1 -4.48955e-011 8.88542e-027   
     length 3.10567   
     axis 180 30 90   XYZ
    dof rx
    limits (-10.0 170.0)
  end
  begin
     id 27 
     name rwrist
     direction -1 -4.48994e-011 1.5779e-026   
     length 1.55283   
     axis -1.15221e-014 -90 -90   XYZ
    dof ry
    limits (-180.0 0.0)
  end
  begin
     id 28
     name rhand
     direction -1 -4.48891e-011 3.1558e-026   
     length 0.498676   
     axis -2.01367e-014 -90 -90   XYZ
    dof rx rz
    limits (-90.0 90.0)
           (-45.0 45.0)
  end
  begin
     id 29
     name rfingers
     direction -1 -4.48972e-011 6.31161e-026   
     length 0.402045   
     axis -4.02734e-014 -90 -90   XYZ
    dof rx
    limits (0.0 90.0)
  end
  begin
     id 30
     name rthumb
     direction -0.707107 -6.34849e-011 0.707107   
     length 0.577259   
     axis -90 -45 -2.85299e-015   XYZ
    dof rx rz
    limits (-45.0 45.0)
           (-45.0 45.0)
  end
:hierarchy
  begin
    root lhipjoint rhipjoint lowerback
    lhipjoint lfemur
    lfemur ltibia
    ltibia lfoot
    lfoot ltoes
    rhipjoint rfemur
    rfemur rtibia
    rtibia rfoot
    rfoot rtoes
    lowerback upperback
    upperback thorax
    thorax lowerneck lclavicle rclavicle
    lowerneck upperneck
    upperneck head
    lclavicle lhumerus
    lhumerus lradius
    lradius lwrist
    lwrist lhand lthumb
    lhand lfingers
    rclavicle rhumerus
    rhumerus rradius
    rradius rwrist
    rwrist rhand rthumb
    rhand rfingers
  end

#!OML:ASF H:\Pregnant\Project 1\Capture day 1\Session 1\femalepreg.ASF
:FULLY-SPECIFIED
:DEGREES
58
root 2.70197 15.7436 16.6157 22.2473 -34.2362 -2.1927
lowerback -17.0398 -3.41194 -0.791526
upperback -8.75014 -4.658 3.00913
thorax 0.505948 -2.34782 2.80614
lowerneck -22.1764 5.04193 4.55633
upperneck 22.4299 7.16035 -6.19405
head 11.3733 2.81957 -1.86412
rclavicle -8.36138e-014 -2.98177e-014
rhumerus -28.954 44.6876 -98.2901
rradius 83.4617
rwrist -22.7079
rhand 7.64716 -13.5161
rfingers 7.12502
rthumb 32.8915 -40.5392
lclavicle -8.36138e-014 -2.98177e-014
lhumerus -18.4647 -19.196 97.1416
lradius 32.2218
lwrist 42.9302
lhand -29.1133 12.3179
lfingers 7.12502
lthumb -2.46114 42.2835
rfemur -37.8872 15.3831 15.7217
rtibia 37.8553
rfoot -15.3389 -9.38256
rtoes -10.3609
lfemur -27.5816 -1.77438 -16.8921
ltibia 20.7203
lfoot -20.298 30.0816
ltoes 13.3446
59
root 2.66947 15.7185 16.603 22.0688 -35.2174 -2.42417
lowerback -16.822 -3.4021 -0.600116
upperback -8.65752 -4.67735 3.05763
thorax 0.483122 -2.36367 2.75471
lowerneck -22.1877 5.02982 4.65298
upperneck 22.7203 7.09278 -6.07817
head 11.4793 2.80617 -1.85063
rclavicle -1.49089e-016 1.59028e-015
rhumerus -28.6404 45.3173 -98.4121
rradius 84.0563
rwrist -23.0465
rhand 8.36272 -13.691
rfingers 7.12502
rthumb 33.5718 -40.5688
lclavicle -1.49089e-016 1.59028e-015
lhumerus -18.8105 -22.1435 98.3509
lradius 33.7218
lwrist 43.2573
lhand -29.0042 11.732
lfingers 7.12502
lthumb -2.35579 41.6987
rfemur -37.9204 15.5539 16.06
rtibia 38.2393
rfoot -15.4802 -8.56198
rtoes -10.4179
lfemur -27.6517 -1.72168 -16.6122
ltibia 21.8522
lfoot -19.7345 28.8642
ltoes 11.7585
60
root 2.63777 15.6897 16.5893 21.9044 -36.2507 -2.68281
lowerback -16.5729 -3.38835 -0.410835
upperback -8.56232 -4.69051 3.1179
thorax 0.447081 -2.37598 2.71975
lowerneck -22.1833 5.02948 4.735
upperneck 22.9749 7.04857 -5.97751
head 11.5709 2.80125 -1.83637
rclavicle -8.00108e-014 -3.97569e-014
rhumerus -28.3417 45.8841 -98.5215
rradius 84.5807
rwrist -23.3707
rhand 9.01482 -13.9476
rfingers 7.12502
rthumb 34.1913 -40.6887
lclavicle -8.00108e-014 -3.97569e-014
lhumerus -19.1934 -25.0896 99.4292
lradius 35.3901
lwrist 43.3687
lhand -28.7319 11.0443
lfingers 7.12502
lthumb -2.09283 41.0138
rfemur -38.0041 15.7826 16.3993
rtibia 38.7038
rfoot -15.641 -7.7435
rtoes -10.4564
lfemur -27.7543 -1.66158 -16.3186
ltibia 23.0878
lfoot -19.2213 27.5817
ltoes 9.97977
61
root 2.60783 15.657 16.5759 21.7426 -37.2989 -2.95252
lowerback -16.3006 -3.37329 -0.200432
upperback -8.45639 -4.70318 3.16929
thorax 0.40754 -2.38858 2.66475
lowerneck -22.1974 5.04848 4.82235
upperneck 23.2113 7.03109 -5.88979
head 11.662 2.80732 -1.82273
rclavicle -3.13831e-014 -2.94201e-014
rhumerus -28.0422 46.3662 -98.6187
rradius 85.0359
rwrist -23.6623
rhand 9.58336 -14.2604
rfingers 7.12502
rthumb 34.7311 -40.8788
lclavicle -3.13831e-014 -2.94201e-014
lhumerus -19.584 -27.9968 100.34
lradius 37.1844
lwrist 43.1289
lhand -28.1591 10.3261
lfingers 7.12502
lthumb -1.53953 40.3003
rfemur -38.1254 16.0442 16.731
rtibia 39.2495
rfoot -15.8317 -6.93519
rtoes -10.4256
lfemur -27.8857 -1.65488 -16.0121
ltibia 24.413
lfoot -18.7772 26.246
ltoes 8.12268
62
root 2.57945 15.6203 16.5631 21.5727 -38.3666 -3.23125
lowerback -16.0076 -3.36073 0.0300013
upperback -8.3308 -4.72 3.21484
thorax 0.375653 -2.4036 2.59224
lowerneck -22.187 5.08219 4.86111
upperneck 23.3922 7.04434 -5.78644
head 11.7268 2.82643 -1.7899
rclavicle 2.40778e-014 2.14687e-014
rhumerus -27.7291 46.7826 -98.6955
rradius 85.4134
rwrist -23.9074
rhand 10.0762 -14.589
rfingers 7.12502
rthumb 35.1986 -41.0984
lclavicle 2.40778e-014 2.14687e-014
lhumerus -19.9425 -30.7708 101.062
lradius 39.0511
lwrist 42.3854
lhand -27.2686 9.56997
lfingers 7.12502
lthumb -0.679527 39.5486
rfemur -38.2705 16.3445 17.0524
rtibia 39.8722
rfoot -16.0524 -6.13681
rtoes -10.3024
lfemur -28.0243 -1.72517 -15.6939
ltibia 25.8116
lfoot -18.3814 24.8818
ltoes 6.17401
63
root 2.55248 15.5797 16.5513 21.3863 -39.456 -3.51408
lowerback -15.6978 -3.33692 0.289916
upperback -8.18006 -4.72318 3.23211
thorax 0.355713 -2.41256 2.47602
lowerneck -22.1611 5.12495 4.8858
upperneck 23.5173 7.07012 -5.67464
head 11.7672 2.85242 -1.74921
rclavicle 4.25896e-014 -2.54444e-014
rhumerus -27.4018 47.0871 -98.753
rradius 85.7221
rwrist -24.0958
rhand 10.4873 -14.9223
rfingers 7.12502
rthumb 35.5884 -41.3389
lclavicle 4.25896e-014 -2.54444e-014
lhumerus -20.252 -33.414 101.576
lradius 40.956
lwrist 41.0863
lhand -26.0966 8.74879
lfingers 7.12502
lthumb 0.452438 38.728
rfemur -38.4261 16.685 17.3624
rtibia 40.5615
rfoot -16.2972 -5.36121
rtoes -10.1582
lfemur -28.1561 -1.87699 -15.3698
ltibia 27.2713
lfoot -18.0401 23.4825
ltoes 4.29713
64
root 2.5267 15.5357 16.5412 21.1886 -40.5719 -3.80885
lowerback -15.3899 -3.2938 0.592859
upperback -7.98989 -4.7036 3.20665
thorax 0.369983 -2.41112 2.29313
lowerneck -22.1488 5.18035 4.9313
upperneck 23.5976 7.10278 -5.56068
head 11.7943 2.88438 -1.70933
rclavicle -4.17199e-014 -4.77083e-015
rhumerus -27.0336 47.2585 -98.7876
rradius 85.9543
rwrist -24.2249
rhand 10.8146 -15.2219
rfingers 7.12502
rthumb 35.8985 -41.5633
lclavicle -4.17199e-014 -4.77083e-015
lhumerus -20.4725 -35.9156 101.856
lradius 42.865
lwrist 39.2292
lhand -24.7775 7.81912
lfingers 7.12502
lthumb 1.72643 37.7919
rfemur -38.5778 17.0561 17.6699
rtibia 41.2979
rfoot -16.5622 -4.59513
rtoes -10.0147
lfemur -28.277 -2.10647 -15.0414
ltibia 28.7927
lfoot -17.8006 22.1258
ltoes 2.7261
65
root 2.50201 15.489 16.5322 20.9814 -41.712 -4.11046
lowerback -15.0786 -3.24373 0.916329
upperback -7.76989 -4.67487 3.15643
thorax 0.4093 -2.40497 2.07352
lowerneck -22.1357 5.25358 5.01346
upperneck 23.6269 7.15183 -5.47012
head 11.8051 2.92499 -1.68102
rclavicle 4.09248e-014 -1.94809e-014
rhumerus -26.6355 47.3365 -98.7931
rradius 86.1125
rwrist -24.3126
rhand 11.0664 -15.4929
rfingers 7.12502
rthumb 36.137 -41.7757
lclavicle 4.09248e-014 -1.94809e-014
lhumerus -20.5868 -38.1848 101.917
lradius 44.7357
lwrist 36.8474
lhand -23.4148 6.71186
lfingers 7.12502
lthumb 3.04253 36.6699
rfemur -38.719 17.4532 17.973
rtibia 42.0599
rfoot -16.8406 -3.83773
rtoes -9.86278
lfemur -28.3916 -2.40776 -14.7124
ltibia 30.3812
lfoot -17.6999 20.9664
ltoes 1.55408
66
root 2.47845 15.4407 16.5241 20.7705 -42.8805 -4.42035
lowerback -14.7595 -3.17697 1.2553
upperback -7.52544 -4.62309 3.07498
thorax 0.465233 -2.38683 1.81587
lowerneck -22.145 5.34196 5.18246
upperneck 23.625 7.20492 -5.43412
head 11.8147 2.96842 -1.68599
rclavicle 1.60767e-014 2.14687e-014
rhumerus -26.2134 47.3042 -98.7677
rradius 86.2082
rwrist -24.3717
rhand 11.2119 -15.7484
rfingers 7.12502
rthumb 36.2749 -41.9969
lclavicle 1.60767e-014 2.14687e-014
lhumerus -20.5839 -40.1823 101.791
lradius 46.5226
lwrist 34.0305
lhand -22.1792 5.35165
lfingers 7.12502
lthumb 4.2357 35.2893
rfemur -38.8465 17.8817 18.27
rtibia 42.8275
rfoot -17.1225 -3.08972
rtoes -9.69939
lfemur -28.5037 -2.7761 -14.3788
ltibia 32.0419
lfoot -17.7799 20.1926
ltoes 0.869937
67
root 2.45601 15.3915 16.5174 20.5734 -44.0749 -4.74987
lowerback -14.4398 -3.10852 1.59485
upperback -7.27088 -4.56738 2.99716
thorax 0.531162 -2.36551 1.56206
lowerneck -22.1504 5.45849 5.4169
upperneck 23.5998 7.2956 -5.47358
head 11.8234 3.02511 -1.72319
rclavicle -3.37437e-014 1.03368e-014
rhumerus -25.7946 47.2317 -98.7064
rradius 86.2345
rwrist -24.4258
rhand 11.2272 -15.957
rfingers 7.12502
rthumb 36.2894 -42.2019
lclavicle -3.37437e-014 1.03368e-014
lhumerus -20.4799 -41.8844 101.536
lradius 48.2152
lwrist 30.9819
lhand -21.2307 3.7257
lfingers 7.12502
lthumb 5.15164 33.6431
rfemur -38.9623 18.328 18.5692
rtibia 43.5938
rfoot -17.4144 -2.33474
rtoes -9.4875
lfemur -28.6149 -3.20488 -14.0308
ltibia 33.7694
lfoot -18.0788 19.8895
ltoes 0.742583
